<?xml version="1.0" encoding="UTF-8" standalone="yes"?>
<!-- Created with qrencode 3.4.1 (http://fukuchi.org/works/qrencode/index.html.en) -->
<svg width="15cm" height="15cm" viewBox="0 0 37 37" preserveAspectRatio="none" version="1.1" xmlns="http://www.w3.org/2000/svg">
	<g id="QRcode">
		<rect x="0" y="0" width="37" height="37" fill="#ffffff" />
		<g id="Pattern">
			<rect x="4" y="4" width="7" height="1" fill="#d0ea93" />
			<rect x="13" y="4" width="1" height="1" fill="#99aac5" />
			<rect x="15" y="4" width="1" height="1" fill="#38163e" />
			<rect x="17" y="4" width="2" height="1" fill="#61f9a8" />
			<rect x="24" y="4" width="1" height="1" fill="#4d307c" />
			<rect x="26" y="4" width="7" height="1" fill="#68cc94" />
			<rect x="4" y="5" width="1" height="1" fill="#ed1362" />
			<rect x="10" y="5" width="1" height="1" fill="#5a6818" />
			<rect x="13" y="5" width="1" height="1" fill="#5da279" />
			<rect x="18" y="5" width="1" height="1" fill="#714ff6" />
			<rect x="22" y="5" width="1" height="1" fill="#9ddff5" />
			<rect x="26" y="5" width="1" height="1" fill="#24587b" />
			<rect x="32" y="5" width="1" height="1" fill="#d5bb2b" />
			<rect x="4" y="6" width="1" height="1" fill="#b0f4b9" />
			<rect x="6" y="6" width="3" height="1" fill="#ea6ba0" />
			<rect x="10" y="6" width="1" height="1" fill="#3e6f8c" />
			<rect x="13" y="6" width="1" height="1" fill="#f42898" />
			<rect x="15" y="6" width="2" height="1" fill="#b67f7c" />
			<rect x="23" y="6" width="1" height="1" fill="#2d835b" />
			<rect x="26" y="6" width="1" height="1" fill="#4e2b97" />
			<rect x="28" y="6" width="3" height="1" fill="#c52cb4" />
			<rect x="32" y="6" width="1" height="1" fill="#fbdece" />
			<rect x="4" y="7" width="1" height="1" fill="#91cc28" />
			<rect x="6" y="7" width="3" height="1" fill="#9652d0" />
			<rect x="10" y="7" width="1" height="1" fill="#9abbcf" />
			<rect x="12" y="7" width="2" height="1" fill="#2c5f3f" />
			<rect x="19" y="7" width="3" height="1" fill="#a93e73" />
			<rect x="26" y="7" width="1" height="1" fill="#fae734" />
			<rect x="28" y="7" width="3" height="1" fill="#16ec9b" />
			<rect x="32" y="7" width="1" height="1" fill="#95b97a" />
			<rect x="4" y="8" width="1" height="1" fill="#ac2679" />
			<rect x="6" y="8" width="3" height="1" fill="#5aaba7" />
			<rect x="10" y="8" width="1" height="1" fill="#746a90" />
			<rect x="12" y="8" width="5" height="1" fill="#e1f179" />
			<rect x="20" y="8" width="1" height="1" fill="#93ce12" />
			<rect x="23" y="8" width="1" height="1" fill="#d978c3" />
			<rect x="26" y="8" width="1" height="1" fill="#3b5ed0" />
			<rect x="28" y="8" width="3" height="1" fill="#b4e68e" />
			<rect x="32" y="8" width="1" height="1" fill="#4f2b9a" />
			<rect x="4" y="9" width="1" height="1" fill="#50bfec" />
			<rect x="10" y="9" width="1" height="1" fill="#64b2c3" />
			<rect x="13" y="9" width="1" height="1" fill="#a12970" />
			<rect x="18" y="9" width="1" height="1" fill="#77af7f" />
			<rect x="24" y="9" width="1" height="1" fill="#e9e158" />
			<rect x="26" y="9" width="1" height="1" fill="#925691" />
			<rect x="32" y="9" width="1" height="1" fill="#c11487" />
			<rect x="4" y="10" width="7" height="1" fill="#2ccba4" />
			<rect x="12" y="10" width="1" height="1" fill="#d77a61" />
			<rect x="14" y="10" width="1" height="1" fill="#5fe3df" />
			<rect x="16" y="10" width="1" height="1" fill="#82abfa" />
			<rect x="18" y="10" width="1" height="1" fill="#d39427" />
			<rect x="20" y="10" width="1" height="1" fill="#fa12c2" />
			<rect x="22" y="10" width="1" height="1" fill="#6918cf" />
			<rect x="24" y="10" width="1" height="1" fill="#6d1bd5" />
			<rect x="26" y="10" width="7" height="1" fill="#3dc5e8" />
			<rect x="14" y="11" width="1" height="1" fill="#db31e8" />
			<rect x="20" y="11" width="1" height="1" fill="#32ab9e" />
			<rect x="22" y="11" width="1" height="1" fill="#83d53b" />
			<rect x="4" y="12" width="2" height="1" fill="#f9c9d4" />
			<rect x="9" y="12" width="3" height="1" fill="#716685" />
			<rect x="13" y="12" width="1" height="1" fill="#e8b9c0" />
			<rect x="15" y="12" width="2" height="1" fill="#b35f30" />
			<rect x="18" y="12" width="3" height="1" fill="#90a3f9" />
			<rect x="23" y="12" width="2" height="1" fill="#cb9fd3" />
			<rect x="28" y="12" width="2" height="1" fill="#9cb989" />
			<rect x="5" y="13" width="3" height="1" fill="#4b50b4" />
			<rect x="11" y="13" width="4" height="1" fill="#fe2f67" />
			<rect x="17" y="13" width="6" height="1" fill="#c1f129" />
			<rect x="27" y="13" width="2" height="1" fill="#3827ce" />
			<rect x="30" y="13" width="2" height="1" fill="#659ac1" />
			<rect x="4" y="14" width="2" height="1" fill="#354f3e" />
			<rect x="7" y="14" width="6" height="1" fill="#f32358" />
			<rect x="14" y="14" width="1" height="1" fill="#a65ba4" />
			<rect x="16" y="14" width="5" height="1" fill="#27fdd5" />
			<rect x="24" y="14" width="2" height="1" fill="#e03280" />
			<rect x="31" y="14" width="1" height="1" fill="#c68c5b" />
			<rect x="8" y="15" width="1" height="1" fill="#3f4d45" />
			<rect x="11" y="15" width="1" height="1" fill="#ca5c22" />
			<rect x="13" y="15" width="1" height="1" fill="#8da0e9" />
			<rect x="15" y="15" width="2" height="1" fill="#f650da" />
			<rect x="19" y="15" width="2" height="1" fill="#1515a3" />
			<rect x="22" y="15" width="1" height="1" fill="#c6ccac" />
			<rect x="24" y="15" width="1" height="1" fill="#e54153" />
			<rect x="26" y="15" width="4" height="1" fill="#6ecded" />
			<rect x="32" y="15" width="1" height="1" fill="#f6aa72" />
			<rect x="4" y="16" width="1" height="1" fill="#d8bf61" />
			<rect x="6" y="16" width="1" height="1" fill="#da5a5d" />
			<rect x="8" y="16" width="1" height="1" fill="#f2c34a" />
			<rect x="10" y="16" width="4" height="1" fill="#5029c9" />
			<rect x="16" y="16" width="2" height="1" fill="#bb83fa" />
			<rect x="19" y="16" width="2" height="1" fill="#4036b1" />
			<rect x="22" y="16" width="2" height="1" fill="#d68edb" />
			<rect x="26" y="16" width="1" height="1" fill="#6f54b1" />
			<rect x="29" y="16" width="1" height="1" fill="#8e4132" />
			<rect x="31" y="16" width="2" height="1" fill="#b2a324" />
			<rect x="6" y="17" width="4" height="1" fill="#ba4ba1" />
			<rect x="15" y="17" width="1" height="1" fill="#b7966b" />
			<rect x="20" y="17" width="1" height="1" fill="#acaebc" />
			<rect x="23" y="17" width="2" height="1" fill="#30f253" />
			<rect x="26" y="17" width="3" height="1" fill="#f6e796" />
			<rect x="31" y="17" width="1" height="1" fill="#38cc2d" />
			<rect x="4" y="18" width="1" height="1" fill="#c0a83f" />
			<rect x="6" y="18" width="1" height="1" fill="#6a425f" />
			<rect x="10" y="18" width="3" height="1" fill="#3411d2" />
			<rect x="18" y="18" width="5" height="1" fill="#37b068" />
			<rect x="24" y="18" width="1" height="1" fill="#405ade" />
			<rect x="26" y="18" width="1" height="1" fill="#7ae1cf" />
			<rect x="29" y="18" width="2" height="1" fill="#be54d0" />
			<rect x="4" y="19" width="2" height="1" fill="#f28cb3" />
			<rect x="7" y="19" width="1" height="1" fill="#ea3185" />
			<rect x="12" y="19" width="1" height="1" fill="#1c1236" />
			<rect x="14" y="19" width="1" height="1" fill="#a63ebc" />
			<rect x="18" y="19" width="1" height="1" fill="#efd9f2" />
			<rect x="22" y="19" width="1" height="1" fill="#cd1dbe" />
			<rect x="24" y="19" width="1" height="1" fill="#7ffc86" />
			<rect x="28" y="19" width="3" height="1" fill="#bdee18" />
			<rect x="32" y="19" width="1" height="1" fill="#21fdc5" />
			<rect x="4" y="20" width="3" height="1" fill="#92fa69" />
			<rect x="8" y="20" width="4" height="1" fill="#b5aee2" />
			<rect x="13" y="20" width="1" height="1" fill="#ace08d" />
			<rect x="15" y="20" width="4" height="1" fill="#55ce23" />
			<rect x="21" y="20" width="1" height="1" fill="#f4dbe3" />
			<rect x="24" y="20" width="1" height="1" fill="#565325" />
			<rect x="27" y="20" width="2" height="1" fill="#f4a51f" />
			<rect x="31" y="20" width="2" height="1" fill="#8754fc" />
			<rect x="4" y="21" width="4" height="1" fill="#92ac89" />
			<rect x="9" y="21" width="1" height="1" fill="#c8dd6b" />
			<rect x="11" y="21" width="1" height="1" fill="#2fe68d" />
			<rect x="13" y="21" width="1" height="1" fill="#1e96ca" />
			<rect x="20" y="21" width="1" height="1" fill="#b161b0" />
			<rect x="22" y="21" width="1" height="1" fill="#88ab79" />
			<rect x="24" y="21" width="2" height="1" fill="#4f6589" />
			<rect x="27" y="21" width="3" height="1" fill="#b4b42a" />
			<rect x="4" y="22" width="5" height="1" fill="#5d4acd" />
			<rect x="10" y="22" width="1" height="1" fill="#fc92f5" />
			<rect x="12" y="22" width="2" height="1" fill="#6e7dbb" />
			<rect x="15" y="22" width="2" height="1" fill="#72d9b5" />
			<rect x="18" y="22" width="2" height="1" fill="#73f230" />
			<rect x="23" y="22" width="1" height="1" fill="#eba28a" />
			<rect x="25" y="22" width="3" height="1" fill="#ad3a8f" />
			<rect x="29" y="22" width="2" height="1" fill="#9ae563" />
			<rect x="32" y="22" width="1" height="1" fill="#527bf1" />
			<rect x="4" y="23" width="1" height="1" fill="#f83ff5" />
			<rect x="6" y="23" width="2" height="1" fill="#574df6" />
			<rect x="13" y="23" width="1" height="1" fill="#b46cec" />
			<rect x="16" y="23" width="1" height="1" fill="#8437fd" />
			<rect x="20" y="23" width="1" height="1" fill="#82dd66" />
			<rect x="23" y="23" width="2" height="1" fill="#b3a294" />
			<rect x="26" y="23" width="1" height="1" fill="#ab1522" />
			<rect x="28" y="23" width="2" height="1" fill="#40a1b2" />
			<rect x="31" y="23" width="1" height="1" fill="#eb84ce" />
			<rect x="4" y="24" width="1" height="1" fill="#2c2043" />
			<rect x="6" y="24" width="1" height="1" fill="#fe52a5" />
			<rect x="8" y="24" width="1" height="1" fill="#421577" />
			<rect x="10" y="24" width="2" height="1" fill="#557454" />
			<rect x="15" y="24" width="1" height="1" fill="#d7a9ea" />
			<rect x="17" y="24" width="6" height="1" fill="#64577f" />
			<rect x="24" y="24" width="5" height="1" fill="#28d753" />
			<rect x="30" y="24" width="2" height="1" fill="#822e50" />
			<rect x="12" y="25" width="3" height="1" fill="#fb3b46" />
			<rect x="17" y="25" width="2" height="1" fill="#716725" />
			<rect x="23" y="25" width="2" height="1" fill="#6d753b" />
			<rect x="28" y="25" width="2" height="1" fill="#8f74d3" />
			<rect x="4" y="26" width="7" height="1" fill="#68b98f" />
			<rect x="12" y="26" width="3" height="1" fill="#7511cd" />
			<rect x="17" y="26" width="1" height="1" fill="#df3736" />
			<rect x="19" y="26" width="1" height="1" fill="#c4e6b4" />
			<rect x="22" y="26" width="1" height="1" fill="#33e05b" />
			<rect x="24" y="26" width="1" height="1" fill="#795d41" />
			<rect x="26" y="26" width="1" height="1" fill="#225986" />
			<rect x="28" y="26" width="3" height="1" fill="#43ef59" />
			<rect x="4" y="27" width="1" height="1" fill="#8dafc5" />
			<rect x="10" y="27" width="1" height="1" fill="#23d4d4" />
			<rect x="12" y="27" width="2" height="1" fill="#29f1c2" />
			<rect x="20" y="27" width="1" height="1" fill="#38a83b" />
			<rect x="22" y="27" width="3" height="1" fill="#45a12e" />
			<rect x="28" y="27" width="2" height="1" fill="#cbf743" />
			<rect x="4" y="28" width="1" height="1" fill="#256bc8" />
			<rect x="6" y="28" width="3" height="1" fill="#21c0de" />
			<rect x="10" y="28" width="1" height="1" fill="#87f415" />
			<rect x="13" y="28" width="1" height="1" fill="#eea73d" />
			<rect x="15" y="28" width="3" height="1" fill="#998fcc" />
			<rect x="19" y="28" width="1" height="1" fill="#7212c1" />
			<rect x="21" y="28" width="1" height="1" fill="#877898" />
			<rect x="23" y="28" width="6" height="1" fill="#7374a1" />
			<rect x="32" y="28" width="1" height="1" fill="#c690bc" />
			<rect x="4" y="29" width="1" height="1" fill="#e1f137" />
			<rect x="6" y="29" width="3" height="1" fill="#ca4ad2" />
			<rect x="10" y="29" width="1" height="1" fill="#28b39c" />
			<rect x="15" y="29" width="1" height="1" fill="#145e26" />
			<rect x="19" y="29" width="3" height="1" fill="#8c82fe" />
			<rect x="23" y="29" width="1" height="1" fill="#114612" />
			<rect x="25" y="29" width="1" height="1" fill="#1c546f" />
			<rect x="27" y="29" width="1" height="1" fill="#427c5f" />
			<rect x="29" y="29" width="1" height="1" fill="#c2f252" />
			<rect x="31" y="29" width="2" height="1" fill="#362afe" />
			<rect x="4" y="30" width="1" height="1" fill="#a3afc0" />
			<rect x="6" y="30" width="3" height="1" fill="#74cd5c" />
			<rect x="10" y="30" width="1" height="1" fill="#8e4668" />
			<rect x="13" y="30" width="1" height="1" fill="#4df499" />
			<rect x="16" y="30" width="4" height="1" fill="#98405c" />
			<rect x="22" y="30" width="1" height="1" fill="#8e4883" />
			<rect x="24" y="30" width="1" height="1" fill="#1e11bd" />
			<rect x="26" y="30" width="1" height="1" fill="#1377f9" />
			<rect x="28" y="30" width="1" height="1" fill="#3a5789" />
			<rect x="30" y="30" width="2" height="1" fill="#6fdf91" />
			<rect x="4" y="31" width="1" height="1" fill="#37d5f6" />
			<rect x="10" y="31" width="1" height="1" fill="#8ac580" />
			<rect x="12" y="31" width="1" height="1" fill="#b8b7df" />
			<rect x="14" y="31" width="1" height="1" fill="#9c74d5" />
			<rect x="18" y="31" width="3" height="1" fill="#22533e" />
			<rect x="23" y="31" width="4" height="1" fill="#f0eec7" />
			<rect x="28" y="31" width="3" height="1" fill="#9ef58d" />
			<rect x="32" y="31" width="1" height="1" fill="#f3d9f5" />
			<rect x="4" y="32" width="7" height="1" fill="#22d7e5" />
			<rect x="12" y="32" width="2" height="1" fill="#3bbc67" />
			<rect x="18" y="32" width="6" height="1" fill="#4febba" />
			<rect x="26" y="32" width="2" height="1" fill="#b398d6" />
		</g>
	</g>
</svg>
